<?xml version="1.0" standalone="no"?><!DOCTYPE svg PUBLIC "-//W3C//DTD SVG 1.1//EN" "http://www.w3.org/Graphics/SVG/1.1/DTD/svg11.dtd"><svg t="1773795586021" class="icon" viewBox="0 0 1178 1024" version="1.1" xmlns="http://www.w3.org/2000/svg" p-id="34870" xmlns:xlink="http://www.w3.org/1999/xlink" width="230.078125" height="200"><path d="M0 517.399808L303.125599 0h577.043145L1178.139981 517.399808 890.96836 1024H303.125599z" fill="#3385B3" p-id="34871"></path><path d="M133.03164 583.915628L470.765101 245.445829l337.733461 338.469799a171.812081 171.812081 0 0 1-66.51582 32.153404 245.445829 245.445829 0 0 1-63.815916 5.154362l-207.401725-210.592522-215.501438 213.292426a121.25024 121.25024 0 0 1-63.815916-2.699904 122.722915 122.722915 0 0 1-58.416107-37.307766z m186.047938 2.699904l90.569511-93.269415v130.577181a325.706616 325.706616 0 0 1-49.089166-13.254075A325.46117 325.46117 0 0 1 319.079578 586.615532z m385.595398-301.407478L613.614573 377.25024l82.224353 82.715244 9.326942-9.326941 171.81208 175.984659a239.555129 239.555129 0 0 0 63.815916-5.399808A180.64813 180.64813 0 0 0 1008.046021 589.06999z" fill="#FFFFFF" p-id="34872"></path></svg>