<?xml version="1.0" standalone="no"?><!DOCTYPE svg PUBLIC "-//W3C//DTD SVG 1.1//EN" "http://www.w3.org/Graphics/SVG/1.1/DTD/svg11.dtd"><svg t="1773795395722" class="icon" viewBox="0 0 1024 1024" version="1.1" xmlns="http://www.w3.org/2000/svg" p-id="14450" xmlns:xlink="http://www.w3.org/1999/xlink" width="200" height="200"><path d="M687.096765 29.714776c-73.564486-26.878351-148.890863-34.141905-222.068372-27.298324-84.827794 6.690589-126.202255 32.929979-123.738407 28.19427C202.577498 80.111684 85.303695 186.634147 31.031026 335.970982c-96.667068 265.970678 40.285528 560.099628 305.808233 656.959685 265.714694 96.859056 559.365673-40.317526 656.094737-306.288204 96.731064-265.93868-40.221532-560.06563-305.872229-656.894689zM354.346185 944.835618A455.325058 455.325058 0 0 1 272.716194 905.126055l1.983878 1.119931c123.739406 9.499417 285.267494-18.974836 394.19181-120.922579 0 0 207.60526-165.87982 57.373479-438.122114 0 0 24.222514 109.722267-6.655591 199.957729 0 0-29.438193 122.745467-160.280164 158.360282C366.601433 758.029082 147.023908 623.188357 55.192543 557.78337c-6.911576-67.164878-0.767953-136.536621 23.898533-204.277464 36.477761-100.346842 105.082551-178.679035 188.888409-231.251808-20.898718 146.584005-4.351733 281.58272 19.454806 338.12725 31.966038 75.804348 87.451633 164.247921 195.829982 175.575225 108.378349 11.391301 168.089685-90.011476 168.089685-90.011476 55.645585-84.471816 64.349051-205.782372 63.485104-208.726191-0.863947-2.975817-14.815091-10.975326-14.81509-10.975327-37.405705 151.416708-99.098919 201.973605-99.098919 201.973606-97.275031 93.915237-166.167803 28.798233-166.167803 28.798233-74.076454-79.580116-22.174639-208.853183-22.174639-208.853184C441.60583 260.102638 526.080646 131.245546 621.851769 65.712567c15.96702 3.935758 31.998036 6.399607 47.773068 12.127256 58.685399 21.822661 109.082306 53.085742 151.960675 92.443327l-0.319981-0.287982c-70.012704 25.566431-183.062766 79.580116-183.062766 79.580116-179.223002 75.516366-191.350257 189.688359-191.350257 189.68836-18.558861 117.65778 74.844407 67.836837 74.844407 67.836837 96.094103-46.813127 143.320205-192.662177 143.320205-192.662177-29.98216-5.727649-53.629709 3.42379-53.629709 3.42379-38.364646 94.714188-116.600845 133.6228-116.600845 133.6228C463.972457 467.772894 456.804897 438.974661 456.804897 438.974661c-5.21568-21.598675 22.270633-25.246451 22.270633-25.24645 42.653382-16.606981 69.916709-61.405232 76.124329-79.708109 6.143623-18.334875 17.566922-19.806785 17.566922-19.806784 32.350015-10.59135 70.268688-18.654855 109.402286-22.622612l2.335857-0.191988c72.540548-8.927452 183.574735 25.698423 183.574734 25.698423a695.612312 695.612312 0 0 0 70.012704 23.518556c40.697503 101.722758 47.133108 217.492653 6.815582 328.52684-87.003661 239.347312-351.378437 362.829734-590.529761 275.698081z" fill="#007CFF" p-id="14451"></path></svg>