<?xml version="1.0" standalone="no"?><!DOCTYPE svg PUBLIC "-//W3C//DTD SVG 1.1//EN" "http://www.w3.org/Graphics/SVG/1.1/DTD/svg11.dtd"><svg t="1773795456055" class="icon" viewBox="0 0 1024 1024" version="1.1" xmlns="http://www.w3.org/2000/svg" p-id="19632" xmlns:xlink="http://www.w3.org/1999/xlink" width="200" height="200"><path d="M941.856 790.312c-19.74-4.54-40.676-7.368-61.86-7.368-36.204 0-69.144 6.264-93.464 16.368a8.244 8.244 0 0 0-4.584 7.316c0 1.148 0.296 2.344 0.744 3.316 2.868 8.34-1.86 17.38-25.372 22.556-34.872 7.652-56.888 43.628-69.5 55.592-14.792 14.04-56.56 22.676-50.28 14.308 4.916-6.548 23.724-26.976 35.164-49.056 10.228-19.728 19.336-25.332 31.88-44.156 3.692-5.524 17.96-24.912 22.108-40.26 4.664-14.98 3.088-33.764 4.88-41.496 2.56-11.156 13.096-35.384 13.892-49.044 0.456-7.748-32.284 11.02-47.82 11.02-15.536 0-30.68-9.284-44.556-9.972-17.18-0.808-28.216 13.248-43.764 10.792-8.88-1.4-16.344-9.216-31.864-9.808-22.084-0.808-49.072 12.264-99.748 10.644-49.864-1.616-95.916-63-102.212-72.756-7.356-11.468-16.356-11.468-26.164-2.48s-21.896 1.94-25.344-4.084c-6.536-11.452-24.024-44.908-51.104-51.912-37.444-9.7-56.416 20.736-53.952 44.96 2.496 24.592 18.392 31.476 25.764 44.544 7.344 13.084 11.116 21.532 24.952 27.324 9.824 4.072 13.476 10.136 10.552 18.192-2.56 7.02-12.776 8.624-19.484 8.944-14.268 0.676-24.268-3.192-31.568-7.852-8.476-5.392-15.376-12.908-22.784-25.668-8.572-14.068-22.056-20.196-37.78-20.196-7.492 0-14.5 1.98-20.724 5.184-24.628 12.8-53.96 20.4-85.532 20.4l-35.596 0.016C9.396 624.288 0.004 569.248 0.004 512.012 0.004 229.228 229.244 0 512.016 0 794.788 0 1024.004 229.228 1024.004 512.012c0 102.604-30.18 198.172-82.148 278.3" p-id="19633"></path><path d="M941.856 790.3c-19.74-4.54-40.676-7.4-61.86-7.4-36.204 0-69.144 6.28-93.464 16.4a8.228 8.228 0 0 0-4.584 7.316c0 1.16 0.296 2.344 0.744 3.328 2.868 8.328-1.86 17.352-25.372 22.528-34.872 7.668-56.888 43.64-69.5 55.58-14.792 14.064-56.56 22.7-50.28 14.32 4.916-6.532 23.724-26.96 35.164-49.028 10.228-19.728 19.336-25.36 31.88-44.168 3.692-5.512 17.96-24.912 22.108-40.26 4.664-14.968 3.088-33.764 4.88-41.5 2.56-11.168 13.096-35.38 13.892-49.068 0.456-7.724-32.284 11.048-47.82 11.048-15.536 0-30.68-9.3-44.556-9.972-17.18-0.808-28.216 13.244-43.764 10.804-8.88-1.428-16.344-9.256-31.864-9.832-22.084-0.796-49.072 12.272-99.748 10.644-49.864-1.62-95.916-63.004-102.212-72.772-7.356-11.44-16.356-11.44-26.164-2.452-9.808 8.984-21.896 1.924-25.344-4.112-6.536-11.424-24.024-44.88-51.104-51.9-37.444-9.7-56.416 20.748-53.952 44.976 2.496 24.588 18.392 31.476 25.764 44.544 7.344 13.084 11.116 21.516 24.952 27.296 9.824 4.096 13.476 10.148 10.552 18.22-2.56 7.004-12.776 8.608-19.484 8.932-14.268 0.688-24.268-3.196-31.568-7.828-8.476-5.432-15.376-12.924-22.784-25.696-8.572-14.068-22.056-20.224-37.78-20.224-7.492 0-14.5 2.008-20.724 5.2-24.628 12.84-53.96 20.428-85.532 20.428l-35.596 0.012C94.992 878.176 286.48 1024 512.016 1024c180.156 0 338.58-93.036 429.84-233.7" fill="#FFFFFF" p-id="19634"></path><path d="M624.78 743.356c2.624 2.572 7.168 11.212 1.616 22.18-3.112 5.804-6.456 9.9-12.448 14.684-7.196 5.768-21.276 12.436-40.584 0.188-10.388-6.588-11.008-8.796-25.344-6.936-10.24 1.332-14.312-9.004-10.632-17.6 3.68-8.568 18.808-15.508 37.62-4.484 8.448 4.972 21.652 15.452 33.2 6.168 4.78-3.84 7.652-6.4 14.292-14.08a1.68 1.68 0 0 1 2.28-0.12" p-id="19635"></path><path d="M800.932 375.78c-5.052 17.004-12.244 38.764-44.26 55.204-4.66 2.372-6.44-1.536-4.284-5.216 12.084-20.576 14.24-25.72 17.76-33.844 4.916-11.86 7.488-28.74-2.292-63.96-19.252-69.296-59.432-161.916-88.616-191.96-28.188-28.996-79.24-37.16-125.388-25.316-16.988 4.364-50.244 21.652-111.912 7.76-106.712-24.04-122.528 29.4-128.644 52.68-6.132 23.284-20.832 89.452-20.832 89.452-4.904 26.936-11.32 73.796 154.38 105.352 77.192 14.712 81.128 34.652 84.536 49.016 6.128 25.724 15.924 40.436 26.948 47.78 11.032 7.356 0 13.444-12.236 14.7-32.876 3.408-154.38-31.436-226.264-72.276-58.812-35.948-59.808-68.312-46.348-95.768-88.832-9.608-155.5 8.34-167.588 50.392-20.748 72.176 158.696 195.46 363.008 257.32 214.42 64.928 434.944 19.604 459.456-115.16 11.14-61.24-40.436-106.536-127.424-126.156m-328.756-131.972c-59.148 4.284-65.292 10.668-76.368 22.46-15.616 16.64-36.192-21.584-36.192-21.584-12.356-2.604-27.324-22.504-19.24-41.096 7.948-18.392 22.648-12.868 27.256-7.14 5.608 6.964 17.556 18.364 33.08 17.96 15.52-0.42 33.428-3.68 58.408-3.68 25.304 0 42.32 9.444 43.276 17.568 0.824 6.928-2.048 13.476-30.22 15.512m62.128-97.728a1.696 1.696 0 0 1-0.272 0.028c-0.916 0-1.656-0.712-1.656-1.564 0-0.616 0.376-1.156 0.932-1.4 11.464-6.064 28.576-10.872 48.152-12.868a184.96 184.96 0 0 1 17.14-0.968c0.968 0 1.94 0.012 2.924 0.024 32.82 0.744 59.096 13.784 58.704 29.132-0.392 15.348-27.296 27.188-60.12 26.448-10.632-0.24-20.6-1.776-29.184-4.256a2.264 2.264 0 0 1-1.752-2.156 2.24 2.24 0 0 1 1.78-2.144c20.48-4.74 34.288-12.488 33.32-19.804-1.292-9.688-28.08-14.972-59.824-11.776-3.476 0.348-6.872 0.792-10.144 1.304" fill="#CC0000" p-id="19636"></path></svg>