<?xml version="1.0" standalone="no"?><!DOCTYPE svg PUBLIC "-//W3C//DTD SVG 1.1//EN" "http://www.w3.org/Graphics/SVG/1.1/DTD/svg11.dtd"><svg t="1773795437491" class="icon" viewBox="0 0 2064 1024" version="1.1" xmlns="http://www.w3.org/2000/svg" p-id="17682" xmlns:xlink="http://www.w3.org/1999/xlink" width="403.125" height="200"><path d="M1850.455147 177.073083c-1.032343-0.064521-2.193729-0.064521-3.427702-0.064522a83.53512 83.53512 0 0 0-57.553137 22.840595l0.064521-0.064522a85.458666 85.458666 0 0 0 54.843236 147.498061h0.20163c0.838779 0.064521 1.871122 0.064521 2.903465 0.064522a85.174369 85.174369 0 0 0 85.170336-81.944264v-0.129042c0-0.838779 0.064521-1.814666 0.064522-2.774423a85.367933 85.367933 0 0 0-82.137828-85.289297h-0.129043z m13.936634 93.106474c-20.84043 0-37.680529-11.291255-37.680529-25.098845 0-14.001156 16.8401-25.227889 37.680529-25.227889 20.904951 0 37.874094 11.162212 37.874094 25.227889 0 13.741053-16.969142 25.096829-37.874094 25.096829z m198.403472 101.494264c0.580693-0.516172 2.064687-1.742079 1.871123-2.903465-4.710066-29.486305-48.59272-172.403342-81.879742-206.793277-9.097525-9.355611-16.452971-18.582179-31.292906-27.292576-120.265975-70.009811-405.454835-112.335885-418.875297-114.271528a2.621184 2.621184 0 0 0-2.258251 0.580693 3.405523 3.405523 0 0 0-0.838779 2.064687l-1.290429 65.747362C1499.067274 78.998456 1287.36835 10.541193 1088.769297 3.637397c-168.273969-5.742409-413.459528-27.623248-738.458126 172.209778l-9.549175 6.000495C187.916719 277.081337 82.351555 394.705964 27.185712 531.235378c-17.29175 43.03581-40.583995 140.078094-17.541771 231.246909a357.628307 357.628307 0 0 0 53.431829 115.882548c56.456273 81.103468 151.175784 134.916377 253.18622 144.013902 144.013902 12.904291 252.992655-51.818793 291.83457-172.919514 26.647361-83.5573 0-206.212584-102.204-268.73589-83.170171-50.842906-172.59489-39.293566-224.472155-4.968152-44.963388 29.873433-70.457428 76.199838-70.005778 127.04476 1.032343 90.330036 78.909739 138.336014 134.787334 138.519498a161.124186 161.124186 0 0 0 50.907427-8.83944 80.700209 80.700209 0 0 0 19.872608-8.774917l-0.322607 0.201629 2.129208-1.290429 1.290429-0.838779-0.45165 0.258086a46.042107 46.042107 0 0 0 20.324258-38.196701 45.366648 45.366648 0 0 0-1.742079-12.646205l0.064521 0.322607a45.911047 45.911047 0 0 0-44.068153-33.228549 49.469809 49.469809 0 0 0-8.839439 0.838779l0.322607-0.064521-3.09703 0.709736-4.322937 1.290429-6.19406 2.129208a125.816836 125.816836 0 0 1-24.582674 3.54868c-6.516667-0.45165-38.712873-10.065347-38.712873-45.366648v-0.43552a52.084944 52.084944 0 0 1 8.000661-27.034489c10.065347-15.743235 37.422444-31.163862 74.52228-27.93779 48.59272 4.322937 83.676261 29.236284 106.914066 76.199838 21.485644 43.681025 15.928734 97.558455-14.64637 136.981064-30.131519 39.03548-83.944428 55.682015-155.627765 47.93944a213.805953 213.805953 0 0 1-166.87466-112.995213l-0.580693-1.161386c-33.486635-63.231025-35.28517-138.271493-4.710066-195.82463 73.104824-138.005342 211.186785-136.521348 286.797864-123.423494 112.011261 19.420958 239.505655 122.792393 284.67269 242.086513a340.429307 340.429307 0 0 1 14.259241 47.810398l4.903631 20.646865 126.464066 61.747032c2.774423 1.290429 3.677723 1.742079 4.710066 0.967822 1.354951-0.967822 0.580693-3.613201 0.580694-3.613201-0.838779-2.838944-2.580858-5.419802-5.613367-40.842081-2.322772-31.421948-7.226403-117.431063 36.132014-160.015223 16.775578-16.775578 42.326074-31.550991 62.650333-36.3901 82.912085-20.195215 180.145917-6.250516 272.091005 100.139313 47.552312 55.044866 70.77197 80.006603 82.52294 91.299874a51.520381 51.520381 0 0 0 4.064852 3.677723 28.907628 28.907628 0 0 0 4.710066 3.54868c3.871287 2.129208 158.144101 73.102808 158.144101 73.102808a2.546581 2.546581 0 0 0 3.161551-0.709736 2.621184 2.621184 0 0 0 0.064522-3.290594c-1.032343-1.225908-97.816541-126.270502-80.589313-229.252793 13.614027-82.063225 78.909739-74.586801 169.241791-64.456933 29.486305 3.427702 63.037461 7.290924 97.816541 8.065182 96.983811 0.580693 201.502518-17.29175 265.832424-45.487625 41.737316-18.066007 68.32822-30.131519 84.976772-45.22954 6.000495-4.968152 9.097525-13.10592 12.323598-21.74373l2.322772-5.677888a266.328433 266.328433 0 0 0 8.323268-29.937954c0.774257-3.613201 1.548515-7.161881-1.354951-9.476589-2.774423-2.064687-8.968482 1.742079-8.968482 1.742079-28.324918 17.033664-98.913406 49.294391-165.112418 50.649342-82.063225 1.613036-248.345094-83.103633-265.574339-92.074132-11.54934-27.550661-23.034159-54.972279-34.777063-82.331392 118.979578 78.393567 217.632882 121.754001 293.189521 128.335189 84.07952 7.54901 149.69179-38.390265 178.08123-57.488616 3.677723-2.387294 7.419967-5.161716 10.839604-7.807096z m-337.513744-112.787534a121.985875 121.985875 0 0 1 121.754001-117.751655c1.548515 0 3.09703 0 4.63748 0.064522h-0.20163a122.542372 122.542372 0 0 1 117.953284 122.334694c0 1.411407 0 2.774423-0.064522 4.129373v-0.20163a122.114917 122.114917 0 0 1-244.151199-4.710066c0-1.354951 0-2.709901 0.064521-4.064852z" fill="#73BA25" p-id="17683"></path></svg>