<?xml version="1.0" standalone="no"?><!DOCTYPE svg PUBLIC "-//W3C//DTD SVG 1.1//EN" "http://www.w3.org/Graphics/SVG/1.1/DTD/svg11.dtd"><svg t="1773795313001" class="icon" viewBox="0 0 1024 1024" version="1.1" xmlns="http://www.w3.org/2000/svg" p-id="8803" xmlns:xlink="http://www.w3.org/1999/xlink" width="200" height="200"><path d="M369.821905 47.721005L247.342228 172.043438l74.790443-39.714552zM355.048092 136.522743l67.578281-27.609557L488.266584 0z" fill="#0091DB" p-id="8804"></path><path d="M294.745517 239.558176l135.569593-69.643438-75.267018-33.391995-32.883649-4.193857z" fill="#0090DA" p-id="8805"></path><path d="M235.872665 177.857648L294.777288 239.558176l27.387155-107.261062z" fill="#049FEA" p-id="8806"></path><path d="M336.556997 134.13987l33.233136-86.450636-47.62569 84.60788z" fill="#B1DDF0" p-id="8807"></path><path d="M430.31511 169.914738l-7.720509-61.001552-67.546509 27.577785z" fill="#089EE8" p-id="8808"></path><path d="M488.266584 0l-65.640211 108.913186 7.688737 61.001552z" fill="#B1DEF0" p-id="8809"></path><path d="M294.745517 239.558176l169.660564 57.188954-34.090971-126.832392z" fill="#B2DEF0" p-id="8810"></path><path d="M235.872665 177.857648l28.213218 234.79243 30.691405-173.091902z" fill="#0064B2" p-id="8811"></path><path d="M379.575799 336.334595l84.830282-39.555693-169.660564-57.220726z" fill="#049FE8" p-id="8812"></path><path d="M376.716351 415.827242l87.68973-119.080112-84.830282 39.587465z" fill="#B2DEF0" p-id="8813"></path><path d="M264.054111 412.618306l112.66224 3.208936 2.859448-79.492647z" fill="#0063B3" p-id="8814"></path><path d="M294.745517 239.558176l84.830282 96.776419-115.521688 76.315483zM316.858579 560.00695l59.857772-144.179708-112.66224-3.177164z" fill="#049FE9" p-id="8815"></path><path d="M127.340738 246.134905l120.065033 27.736643L235.872665 177.921191z" fill="#0091DC" p-id="8816"></path><path d="M127.340738 389.742724l136.713373 22.875582-136.713373-166.483401z" fill="#0091DB" p-id="8817"></path><path d="M247.405771 273.871548l-120.096804-27.768414 136.776916 166.515172z" fill="#049FE9" p-id="8818"></path><path d="M127.340738 389.742724l-53.312814-29.61117 53.312814-113.996649z" fill="#B2DEF0" p-id="8819"></path><path d="M124.385976 517.81421l139.699907-105.195904-136.745145-22.875582z" fill="#01A0E9" p-id="8820"></path><path d="M0 486.296742l127.340738-96.554018-53.312814-29.642941z" fill="#0063B2" p-id="8821"></path><path d="M0 486.296742l124.385976 31.517468 2.954762-128.039714z" fill="#0391DB" p-id="8822"></path><path d="M70.342414 660.691281l54.043562-142.877071L0 486.296742z" fill="#0063B2" p-id="8823"></path><path d="M150.279863 703.64654l-25.925659-185.864101-54.01179 142.940614zM316.858579 560.00695l-102.940118-28.880422-63.638598 172.520012z" fill="#0391DB" p-id="8824"></path><path d="M124.385976 517.81421l89.564257 13.312318-63.638598 172.520012z" fill="#049FE9" p-id="8825"></path><path d="M316.858579 560.00695l-22.081291 113.996649-144.497425 29.61117z" fill="#049FE9" p-id="8826"></path><path d="M92.550791 801.344338l57.760844-97.729569-79.969221-42.891716z" fill="#049FE9" p-id="8827"></path><path d="M294.745517 674.035371l214.585665-47.371517-192.504375-66.656904z" fill="#B2DEF0" p-id="8828"></path><path d="M376.716351 415.827242l128.992864 94.997207-188.850636 49.182501z" fill="#0090DB" p-id="8829"></path><path d="M509.331182 626.632082l-3.653739-115.839404-188.818864 49.246044zM150.279863 703.64654l83.273472 75.616507 61.192182-105.227676z" fill="#0091DA" p-id="8830"></path><path d="M177.857648 864.442817l55.727459-85.147999-83.305244-75.680049z" fill="#044382" p-id="8831"></path><path d="M92.550791 801.344338l85.306857 63.098479-27.546013-160.828048z" fill="#0063B2" p-id="8832"></path><path d="M74.027924 927.9861l103.829724-63.543283-53.503444 6.100155z" fill="#0063B2" p-id="8833"></path><path d="M92.550791 801.344338L124.385976 870.542972l53.471672-6.036611z" fill="#0091DA" p-id="8834"></path><path d="M74.027924 927.9861l84.893826 60.842693 18.935898-124.385976z" fill="#0091DA" p-id="8835"></path><path d="M23.066212 988.828793h135.855538L74.027924 927.9861z" fill="#014381" p-id="8836"></path><path d="M233.553335 779.263047l88.293392 13.502947-27.10121-118.762395z" fill="#049FE9" p-id="8837"></path><path d="M423.897239 754.258765l-129.151722-80.255166 27.069438 118.825939z" fill="#0091DA" p-id="8838"></path><path d="M499.60906 714.385355l9.722122-87.753273-214.553894 47.371517z" fill="#0062B2" p-id="8839"></path><path d="M423.897239 754.258765l75.711821-39.87341-204.863543-40.349984z" fill="#014381" p-id="8840"></path><path d="M509.331182 626.632082l-9.722122 87.753273 151.391871-29.738256z" fill="#014381" p-id="8841"></path><path d="M505.677443 510.792678l180.462923 75.171703-176.809184 40.667701z" fill="#B2DEF0" p-id="8842"></path><path d="M651.000931 684.678871l35.139435-98.71449-176.809184 40.667701z" fill="#089EEA" p-id="8843"></path><path d="M575.320881 766.427304l75.711821-81.780205-151.423642 29.738256z" fill="#0091DB" p-id="8844"></path><path d="M536.114676 897.548868l39.206205-131.089793L484.199814 870.542972zM397.177288 952.990382l139.604592 5.401179L484.199814 870.542972z" fill="#034281" p-id="8845"></path><path d="M536.114676 897.548868l0.635433 60.874464-52.518524-87.88036zM575.320881 766.427304l65.576668 45.973565-104.782873 85.147999z" fill="#0063B2" p-id="8846"></path><path d="M651.000931 684.678871l106.117282 54.710766-181.829103 27.037667z" fill="#089EEA" p-id="8847"></path><path d="M686.172138 585.964381l66.243872 24.750109-101.383308 73.932609zM679.404778 861.075023l77.745206-121.685386-181.829103 27.069438 65.544896 45.941794z" fill="#0091DB" p-id="8848"></path><path d="M817.293702 517.81421l-131.121564 68.150171 66.243872 24.750109z" fill="#089EEA" p-id="8849"></path><path d="M853.132113 546.758176l-35.838411-28.943966-64.909464 92.90028z" fill="#0091DB" p-id="8850"></path><path d="M891.639342 404.135278l-38.539001 142.622898-35.806639-28.943966z" fill="#089EEA" p-id="8851"></path><path d="M915.976419 560.00695l25.004282-95.727955-87.88036 82.479181z" fill="#0063B2" p-id="8852"></path><path d="M891.639342 404.135278l49.341359 60.143717-87.88036 82.479181z" fill="#0091DB" p-id="8853"></path><path d="M891.639342 404.135278l49.341359 60.175488L1016.692522 364.230096z" fill="#B2DEF0" p-id="8854"></path><path d="M915.976419 560.038722l78.412411-28.912194-53.376357-66.815762z" fill="#0091DB" p-id="8855"></path><path d="M940.980701 464.278995l53.376358 66.847533 22.335463-166.86466z" fill="#089EEA" p-id="8856"></path><path d="M569.220726 1023.968228h144.624511l-7.434564-79.746819-27.005895-83.146386zM808.492957 846.205895l-51.374744-106.784486-77.713435 121.653614z" fill="#034282" p-id="8857"></path><path d="M706.442445 944.221409l102.050512-98.015514-129.088179 14.869128zM651.000931 684.678871l106.117282 54.710766-4.733975-128.675147z" fill="#0063B2" p-id="8858"></path><path d="M264.054111 412.618306l52.804468 147.420416-102.908346-28.912194z" fill="#B2DEF0" p-id="8859"></path><path d="M124.385976 517.81421l89.564257 13.312318 50.13565-118.508222z" fill="#0391DB" p-id="8860"></path></svg>