<?xml version="1.0" standalone="no"?><!DOCTYPE svg PUBLIC "-//W3C//DTD SVG 1.1//EN" "http://www.w3.org/Graphics/SVG/1.1/DTD/svg11.dtd"><svg t="1773795488077" class="icon" viewBox="0 0 1024 1024" version="1.1" xmlns="http://www.w3.org/2000/svg" p-id="23771" xmlns:xlink="http://www.w3.org/1999/xlink" width="200" height="200"><path d="M491.58 49.875c-128 0-250.76 51.2-341.233 142.517A489.231 489.231 0 0 0 8.975 536.757c0 4.517 0.542 9.035 0.602 13.492L8.493 884.616C7.65 906.36 12.65 927.985 22.89 947.26c10.24 19.215 22.528 33.732 43.912 46.924 21.203 13.07 39.514 17.709 61.199 18.13a121.073 121.073 0 0 0 61.982-15.48 123.603 123.603 0 0 0 62.765-107.038V852.69l1.506-175.887V539.287a103.002 103.002 0 0 0-25.66-69.452 77.282 77.282 0 0 1 5.542-106.857 75.535 75.535 0 0 1 106.074 2.65 77.282 77.282 0 0 1 0.301 106.978 98.2 98.2 0 0 0-25.66 67.644v29.034s12.77 107.82 88.967 10.842l48.189-79.39c13.251-21.745 18.07-47.827 13.372-72.945a76.56 76.56 0 0 1 58.97-89.269 76.077 76.077 0 0 1 89.75 57.465 76.74 76.74 0 0 1-54.693 91.919 97.33 97.33 0 0 0-56.5 44.092l-51.02 83.727s-26.082 49.694 33.973 49.694l69.03-2.228a96.979 96.979 0 0 0 66.379-27.468 75.354 75.354 0 0 1 106.014-2.228c30.118 28.37 32.226 75.836 4.819 106.857a75.294 75.294 0 0 1-105.834 7.47 101.376 101.376 0 0 0-69.39-24.938s-69.753-1.084-116.134 52.284a145.77 145.77 0 0 0-23.19 156.07c1.204 2.71 2.65 5.3 3.975 8.312l1.626 2.41c0.964 1.807 2.048 3.553 3.132 5.24l1.988 2.952c1.084 1.626 2.168 3.011 3.373 4.517l2.41 3.012c1.144 1.506 2.349 2.891 3.553 4.216l2.831 3.072 3.856 3.916 3.192 2.891 4.277 3.735 3.614 2.71 4.758 3.494c1.205 0.903 2.53 1.747 3.795 2.53 1.325 0.903 3.494 2.289 5.3 3.192l4.097 2.47a89.692 89.692 0 0 0 5.843 3.012l4.397 2.108 6.867 2.83 4.337 1.808 8.252 2.831 3.614 1.205c4.217 1.325 8.252 2.41 13.01 3.493l2.591 0.482a289.13 289.13 0 0 0 11.445 2.29l5.3 0.782c3.193 0.482 6.385 0.964 9.759 1.325l6.445 0.603 8.674 0.662c9.276 0.603 18.673 0.302 27.889-0.602 240.7-52.585 403.516-279.612 377.795-526.758C943.887 238.833 737.882 50.96 491.64 49.875z" fill="#59AB2D" p-id="23772"></path></svg>